#!OML:ASF E:/inclinewalkrobotboard/Project1/Captureday1/Session1/subject1.ASF
:FULLY-SPECIFIED
:DEGREES
176
root 0 0 0 -2.293081886640451 -3.749080625650002 -4.703754061670273
lowerback 10.475271766317618 1.3762816420992814 3.4738757369153124
upperback 0.49692553967219855 2.328908287495368 1.695885374552002
thorax -5.234036563016584 1.091143720983689 -0.5009682016062876
lowerneck -17.03088723471381 -3.092200756401922 -1.6958987531203027
upperneck 19.346064570962177 -3.9355883154205595 0.520142022126989
head 8.927583624605944 -1.903471297165389 -0.04741578258882173
rclavicle -3.7889807690240577E-16 -3.520454747414169E-16
rhumerus -30.285483469095226 -19.140571776439728 -78.2978592371334
rradius 25.57583899470928
rwrist 4.147512396540989
rhand -17.484790927731677 23.357683042231592
rfingers 7.1250200000000365
rthumb 8.75239773002863 -6.476395777346333
lclavicle -6.368474951811323E-16 -1.9613237275011876E-16
lhumerus -30.449908347423357 -1.3513720157467652 82.29893845039696
lradius 32.00660721151423
lwrist 5.6399287964561875
lhand -25.713415051955202 23.827129341028233
lfingers 7.124033640371605
lthumb 0.8101417292319741 53.49066230961689
rfemur -20.186077631133074 1.8766049998593965 21.98383766685753
rtibia 57.54533652602492
rfoot 0.6902209705634998 -5.444899617180057
rtoes 7.776164848768276
lfemur 2.5546788032018544 -3.4661299543399084 -25.856817557828723
ltibia 18.34889579273526
lfoot -16.02485255678933 1.0632267211594764
ltoes -3.5045283564574254
177
root 0 0 0 -2.324493812538136 -3.311417668275171 -4.3339411143858415
lowerback 10.478364022925854 1.1863383745453462 3.0624537793906965
upperback 0.47989233584678503 2.0315314683562695 1.7214077624953856
thorax -5.256179055419764 0.9553821670260114 -0.20204521777951737
lowerneck -17.135959608160853 -3.0503480227171362 -1.6848849239213344
upperneck 19.449550210135502 -3.8613394541656243 0.4331148973082346
head 8.975203227619618 -1.8728498848977457 -0.07229961053287415
rclavicle -3.6945337663253847E-16 -3.5747655930056473E-16
rhumerus -30.410730052880744 -19.257652398340014 -78.32153087522514
rradius 25.460633840186848
rwrist 4.124082810510168
rhand -17.463931810067777 23.447232719957835
rfingers 7.125020000000037
rthumb 8.77134813734206 -6.38876636487899
lclavicle -6.386227235519086E-16 -1.9889815663169407E-16
lhumerus -30.450542313780133 -1.3509714778336566 82.29937444291562
lradius 32.00467728361223
lwrist 5.641269728779001
lhand -25.71290543454222 23.828234666261075
lfingers 7.124038201153958
lthumb 0.810841248557594 53.49009022238003
rfemur -20.726438297606215 1.846828765173254 21.66798068845229
rtibia 57.72205591811918
rfoot 0.8003396340711948 -5.571805589590527
rtoes 7.640375779660903
lfemur 3.1838570336193595 -3.4181109607198463 -26.109438296228152
ltibia 18.55804524831677
lfoot -16.014561992980134 0.7946146530758664
ltoes -3.6856497533992405
178
root 0 0 0 -2.3861531190334713 -2.5120477239496637 -3.601782633508823
lowerback 10.479933122187537 0.8193857545619022 2.2502156348473905
upperback 0.45577624292786867 1.4543777917273806 1.762370635159129
thorax -5.288765418914476 0.6916893276456899 0.3769809575778002
lowerneck -17.297966589570184 -2.9690112702936293 -1.6799570817712057
upperneck 19.6159931273705 -3.7200894772524444 0.29034417930620204
head 9.052501597811887 -1.8145036633268758 -0.10854236654807004
rclavicle -3.6420103834885387E-16 -3.6050518291832455E-16
rhumerus -30.437714646340474 -19.28158104838119 -78.32361219318092
rradius 25.44182669108019
rwrist 4.121287872864239
rhand -17.45975245451106 23.463372304730488
rfingers 7.125020000000038
rthumb 8.774698122156199 -6.373055413402302
lclavicle -6.439498500333698E-16 -2.0415961710895545E-16
lhumerus -30.42916836460716 -1.3772020280163382 82.29758701271312
lradius 32.05123079832826
lwrist 5.6439274809692055
lhand -25.69523425012072 23.834666155818827
lfingers 7.124020811168791
lthumb 0.828173707427176 53.49216222139691
rfemur -21.023717428120083 1.92197999983736 21.487636015725798
rtibia 57.30613306443947
rfoot 0.6383110920227271 -5.731043551530373
rtoes 7.392511263463573
lfemur 3.4187172993181054 -3.3524007041633173 -26.17018690750141
ltibia 19.00053332648431
lfoot -15.828421757092805 0.5315640861489355
ltoes -3.8127501560497157
179
root 0 0 0 -2.4478417440722464 -1.876649323587774 -2.878775616124615
lowerback 10.47521669827562 0.48032289071848694 1.4518708249136547
upperback 0.44894865043274423 0.9142712694926123 1.7815214029522823
thorax -5.298566368251726 0.44426062152146606 0.9197031436065181
lowerneck -17.369801313714888 -2.8969114458503156 -1.7103958401696238
upperneck 19.710186989500336 -3.5987845064971133 0.21370916784292948
head 9.093378715144848 -1.7651677662215577 -0.11713180504432907
rclavicle -3.6400740684929314E-16 -3.627816803158428E-16
rhumerus -30.38773719636047 -19.231142498736673 -78.31436228948338
rradius 25.49080999124351
rwrist 4.131793010295758
rhand -17.467268493755235 23.425396632184963
rfingers 7.125020000000037
rthumb 8.767314065441674 -6.410655297318989
lclavicle -6.485482008244121E-16 -2.0778541818620565E-16
lhumerus -30.337099617625572 -1.4743471227027456 82.29070277496125
lradius 32.243410499666275
lwrist 5.664478335891175
lhand -25.63870258833684 23.87042795246992
lfingers 7.123980509932886
lthumb 0.8834815651643577 53.50722169788907
rfemur -21.220027241856954 1.9967385673227334 21.34519844040628
rtibia 56.95033686782544
rfoot 0.478767189291208 -5.857256926244296
rtoes 7.1715188776406675
lfemur 3.6109952104529537 -3.336801571311236 -26.224881642402526
ltibia 19.091531158134014
lfoot -15.871270221250194 0.4971781909228241
ltoes -3.898093358322482
180
root 0 0 0 -2.5294713866464305 -1.2025424639145452 -1.916520016095054
lowerback 10.461215686310178 0.05791276230305775 0.39396991377023927
upperback 0.4550572363244556 0.2327775345377584 1.7840642965009832
thorax -5.289817678518485 0.13106611008252925 1.6097372040932807
lowerneck -17.383107111048627 -2.813455444128784 -1.7851024974693939
upperneck 19.767621698810885 -3.461842195429944 0.1800286501717645
head 9.111688007209057 -1.7107349830475567 -0.10022721071940266
rclavicle -3.6785877948273153E-16 -3.6204901848249077E-16
rhumerus -30.277030848256004 -19.124755064223564 -78.29078312950533
rradius 25.59672854418345
rwrist 4.155432309272386
rhand -17.485134082562254 23.34265843956403
rfingers 7.1250200000000365
rthumb 8.750267812148898 -6.4918504464571996
lclavicle -6.575284837326073E-16 -2.097030248807327E-16
lhumerus -30.190906869578676 -1.6327813970312697 82.27991752339224
lradius 32.551651164840614
lwrist 5.69485228753561
lhand -25.54706215641895 23.925305106379074
lfingers 7.123906544770954
lthumb 0.9711802588842211 53.53100248759092
rfemur -21.260560929856453 2.166262999221427 21.275076256840567
rtibia 56.08547609109375
rfoot 0.08563737257591875 -6.026466005951925
rtoes 6.805398324355047
lfemur 3.7439458425959575 -3.331503531920425 -26.254891879355416
ltibia 19.121409306692186
lfoot -15.951797016092572 0.5219044131937682
ltoes -3.9661076204011065
